<svg xmlns="http://www.w3.org/2000/svg" width="760" height="232" viewBox="0 0 760 232" font-family="Menlo, Consolas, 'DejaVu Sans Mono', 'Courier New', monospace">
  <!-- ═══════════ 分类标签（左）＋ 技术 pill 横向居中排布，撑满画布宽度 ═══════════ -->
  <!-- 分隔线 -->
  <line x1="182" y1="26" x2="182" y2="210" stroke="#30363d" stroke-width="1"/>

  <!-- LANGUAGES -->
  <text x="170" y="56" text-anchor="end" fill="#7dcfff" font-size="14" font-weight="700">LANGUAGES</text>
  <rect x="247"   y="36" width="124" height="28" rx="7" fill="#3178C6"/>
  <text x="309"   y="56" text-anchor="middle" fill="#ffffff" font-size="14" font-weight="600">TypeScript</text>
  <rect x="385"   y="36" width="124" height="28" rx="7" fill="#F7DF1E"/>
  <text x="447"   y="56" text-anchor="middle" fill="#161b22" font-size="14" font-weight="600">JavaScript</text>
  <rect x="523"   y="36" width="82" height="28" rx="7" fill="#E34F26"/>
  <text x="564"   y="56" text-anchor="middle" fill="#ffffff" font-size="14" font-weight="600">HTML5</text>
  <rect x="619"   y="36" width="74" height="28" rx="7" fill="#1572B6"/>
  <text x="656"   y="56" text-anchor="middle" fill="#ffffff" font-size="14" font-weight="600">CSS3</text>

  <!-- FRONTEND -->
  <text x="170" y="108" text-anchor="end" fill="#7dcfff" font-size="14" font-weight="700">FRONTEND</text>
  <rect x="237"   y="88" width="82" height="28" rx="7" fill="#61DAFB"/>
  <text x="278"   y="108" text-anchor="middle" fill="#161b22" font-size="14" font-weight="600">React</text>
  <rect x="333"   y="88" width="65" height="28" rx="7" fill="#4FC08D"/>
  <text x="365.5" y="108" text-anchor="middle" fill="#ffffff" font-size="14" font-weight="600">Vue</text>
  <rect x="412"   y="88" width="82" height="28" rx="7" fill="#FF5D01"/>
  <text x="453"   y="108" text-anchor="middle" fill="#ffffff" font-size="14" font-weight="600">Astro</text>
  <rect x="508"   y="88" width="107" height="28" rx="7" fill="#06B6D4"/>
  <text x="561.5" y="108" text-anchor="middle" fill="#ffffff" font-size="14" font-weight="600">Tailwind</text>
  <rect x="629"   y="88" width="74" height="28" rx="7" fill="#646CFF"/>
  <text x="666"   y="108" text-anchor="middle" fill="#ffffff" font-size="14" font-weight="600">Vite</text>

  <!-- BACKEND -->
  <text x="170" y="160" text-anchor="end" fill="#7dcfff" font-size="14" font-weight="700">BACKEND</text>
  <rect x="243"   y="140" width="99" height="28" rx="7" fill="#339933"/>
  <text x="292.5" y="160" text-anchor="middle" fill="#ffffff" font-size="14" font-weight="600">Node.js</text>
  <rect x="356"   y="140" width="90" height="28" rx="7" fill="#2496ED"/>
  <text x="401"   y="160" text-anchor="middle" fill="#ffffff" font-size="14" font-weight="600">Docker</text>
  <rect x="460"   y="140" width="65" height="28" rx="7" fill="#F05032"/>
  <text x="492.5" y="160" text-anchor="middle" fill="#ffffff" font-size="14" font-weight="600">Git</text>
  <rect x="539"   y="140" width="158" height="28" rx="7" fill="#2088FF"/>
  <text x="618"   y="160" text-anchor="middle" fill="#ffffff" font-size="14" font-weight="600">GitHub Actions</text>

  <!-- PLATFORMS -->
  <text x="170" y="212" text-anchor="end" fill="#7dcfff" font-size="14" font-weight="700">PLATFORMS</text>
  <rect x="343.5" y="192" width="174" height="28" rx="7" fill="#4285F4"/>
  <text x="430.5" y="212" text-anchor="middle" fill="#ffffff" font-size="14" font-weight="600">Chrome Extension</text>
  <rect x="531.5" y="192" width="65" height="28" rx="7" fill="#5A0FC8"/>
  <text x="564"   y="212" text-anchor="middle" fill="#ffffff" font-size="14" font-weight="600">PWA</text>
</svg>
